<?xml version="1.0" standalone="no"?><!DOCTYPE svg PUBLIC "-//W3C//DTD SVG 1.1//EN" "http://www.w3.org/Graphics/SVG/1.1/DTD/svg11.dtd"><svg t="1548063798888" class="icon" style="" viewBox="0 0 1026 1024" version="1.1" xmlns="http://www.w3.org/2000/svg" p-id="7211" xmlns:xlink="http://www.w3.org/1999/xlink" width="200.390625" height="200"><defs><style type="text/css"></style></defs><path d="M930.909091 244.363636h-123.345455V186.181818c0-60.509091-48.872727-109.381818-109.381818-109.381818H325.818182c-60.509091 0-109.381818 48.872727-109.381818 109.381818v55.854546H97.745455C46.545455 242.036364 2.327273 283.927273 2.327273 337.454545v542.254546c0 51.2 41.890909 95.418182 95.418182 95.418182H930.909091c51.2 0 95.418182-41.890909 95.418182-95.418182V337.454545c0-51.2-41.890909-93.090909-95.418182-93.090909zM283.927273 186.181818c0-23.272727 18.618182-44.218182 44.218182-44.218182h372.363636c23.272727 0 44.218182 20.945455 44.218182 44.218182v55.854546H283.927273V186.181818z m-186.181818 121.018182H930.909091c16.290909 0 30.254545 13.963636 30.254545 30.254545v139.636364H633.018182v2.327273c-2.327273-44.218182-39.563636-79.127273-83.781818-79.127273h-72.145455c-44.218182 0-81.454545 34.909091-83.781818 79.127273h-325.818182v-139.636364c0-18.618182 11.636364-32.581818 30.254546-32.581818z m472.436363 176.872727V628.363636c0 11.636364-9.309091 18.618182-18.618182 18.618182h-72.145454c-11.636364 0-18.618182-9.309091-18.618182-18.618182v-144.290909c0-11.636364 9.309091-18.618182 18.618182-18.618182h72.145454c9.309091 0 18.618182 9.309091 18.618182 18.618182zM930.909091 909.963636H97.745455c-16.290909 0-30.254545-13.963636-30.254546-30.254545V542.254545H395.636364V628.363636c0 46.545455 37.236364 83.781818 83.781818 83.781819h72.145454c46.545455 0 83.781818-37.236364 83.781819-83.781819v-86.109091h328.145454v337.454546c-2.327273 16.290909-16.290909 30.254545-32.581818 30.254545z" fill="#409EFF" p-id="7212"></path></svg>